<svg xmlns="http://www.w3.org/2000/svg" xmlns:xlink="http://www.w3.org/1999/xlink" width="160" zoomAndPan="magnify" viewBox="0 0 120 37.5" height="50" preserveAspectRatio="xMidYMid meet" version="1.0"><defs><g/><clipPath id="f0f777efb4"><path d="M 12 10 L 26.730469 10 L 26.730469 34.785156 L 12 34.785156 Z M 12 10 " clip-rule="nonzero"/></clipPath><clipPath id="bd2843f159"><path d="M 6.746094 8 L 17 8 L 17 22 L 6.746094 22 Z M 6.746094 8 " clip-rule="nonzero"/></clipPath><clipPath id="142b5487b3"><path d="M 6.746094 20 L 16 20 L 16 34.785156 L 6.746094 34.785156 Z M 6.746094 20 " clip-rule="nonzero"/></clipPath><clipPath id="be9575cbfe"><path d="M 24 18 L 26 18 L 26 34.785156 L 24 34.785156 Z M 24 18 " clip-rule="nonzero"/></clipPath></defs><g fill="#ffffff" fill-opacity="1"><g transform="translate(28.541918, 24.709434)"><g><path d="M 13.296875 -5.898438 C 12.476562 -5.8125 11.65625 -5.722656 10.835938 -5.601562 C 11.394531 -6.980469 12.007812 -8.34375 12.671875 -9.667969 C 12.84375 -10.035156 11.988281 -10.769531 11.761719 -10.332031 C 10.960938 -8.726562 10.246094 -7.101562 9.597656 -5.425781 C 8.34375 -5.253906 7.101562 -5.042969 5.847656 -4.816406 C 6.335938 -5.984375 6.859375 -7.15625 7.398438 -8.308594 C 7.574219 -8.671875 6.71875 -9.40625 6.507812 -8.96875 C 5.8125 -7.523438 5.183594 -6.054688 4.589844 -4.554688 C 3.261719 -4.292969 1.953125 -3.996094 0.644531 -3.683594 C 0.210938 -3.578125 0.890625 -2.671875 1.308594 -2.773438 C 2.25 -3.019531 3.195312 -3.230469 4.152344 -3.4375 C 3.421875 -1.464844 2.757812 0.523438 2.199219 2.53125 C 2.113281 2.863281 2.773438 3.613281 3.054688 3.28125 C 3.296875 2.984375 3.472656 2.6875 3.578125 2.339844 C 3.613281 2.214844 3.558594 2.078125 3.472656 1.9375 C 4.03125 0.0351562 4.675781 -1.851562 5.410156 -3.699219 C 6.667969 -3.945312 7.921875 -4.171875 9.199219 -4.378906 C 8.671875 -2.949219 8.21875 -1.519531 7.800781 -0.0703125 C 7.695312 0.347656 8.585938 1.046875 8.707031 0.59375 C 9.199219 -1.152344 9.753906 -2.863281 10.417969 -4.554688 C 11.535156 -4.710938 12.652344 -4.851562 13.769531 -4.972656 C 14.347656 -5.042969 13.699219 -5.953125 13.296875 -5.898438 Z M 13.296875 -5.898438 "/></g></g></g><g fill="#ffffff" fill-opacity="1"><g transform="translate(40.129343, 24.709434)"><g><path d="M 2.042969 -2.285156 C 2.023438 -2.355469 2.007812 -2.410156 1.988281 -2.476562 C 2.234375 -2.757812 1.589844 -3.492188 1.238281 -3.316406 C 0.140625 -2.757812 -1.832031 -0.835938 -0.644531 0.488281 C -0.015625 1.1875 0.804688 0.890625 1.328125 0.226562 C 1.886719 -0.488281 2.128906 -1.378906 2.042969 -2.285156 Z M 0.835938 -1.117188 C 0.714844 -0.855469 0.558594 -0.609375 0.347656 -0.402344 C 0.226562 -0.261719 0.105469 -0.210938 -0.0351562 -0.0859375 C -0.015625 -0.175781 0 -0.277344 0.015625 -0.3125 C 0.0507812 -0.4375 0.105469 -0.542969 0.15625 -0.664062 C 0.277344 -0.90625 0.4375 -1.152344 0.609375 -1.359375 C 0.75 -1.554688 0.90625 -1.710938 1.082031 -1.867188 C 1.03125 -1.605469 0.960938 -1.359375 0.835938 -1.117188 Z M 0.835938 -1.117188 "/></g></g></g><g fill="#ffffff" fill-opacity="1"><g transform="translate(43.357763, 24.709434)"><g><path d="M 3.996094 -2.128906 C 3.507812 -1.605469 1.796875 -0.699219 0.523438 -0.523438 C 0.453125 -1.167969 0.925781 -2.128906 1.082031 -2.582031 C 1.394531 -3.507812 1.710938 -4.433594 2.042969 -5.339844 C 2.722656 -7.207031 3.457031 -9.058594 4.222656 -10.890625 C 4.378906 -11.273438 3.507812 -12.007812 3.316406 -11.554688 C 2.617188 -9.878906 1.953125 -8.183594 1.328125 -6.476562 C 1.011719 -5.65625 0.734375 -4.835938 0.4375 -3.996094 C 0.175781 -3.210938 -0.15625 -2.410156 -0.332031 -1.589844 C -0.453125 -0.996094 -0.402344 -0.402344 0.015625 0.0859375 C 0.402344 0.558594 0.925781 0.472656 1.464844 0.296875 C 2.582031 -0.0351562 3.71875 -0.785156 4.519531 -1.640625 C 4.816406 -1.972656 4.292969 -2.460938 3.996094 -2.128906 Z M 3.996094 -2.128906 "/></g></g></g><g fill="#ffffff" fill-opacity="1"><g transform="translate(47.423833, 24.709434)"><g><path d="M 3.28125 -2.148438 C 2.460938 -1.464844 0.785156 -0.558594 0.0859375 -0.4375 C 0.105469 -0.507812 0.140625 -0.59375 0.175781 -0.664062 C 0.382812 -1.222656 0.628906 -1.726562 0.941406 -2.234375 C 1.132812 -2.582031 0.277344 -3.332031 0.0351562 -2.898438 C -0.347656 -2.25 -0.925781 -1.359375 -0.90625 -0.59375 C -0.890625 0.0859375 -0.246094 0.714844 0.4375 0.574219 C 1.03125 0.453125 1.605469 0.0507812 2.09375 -0.277344 C 2.707031 -0.699219 3.296875 -1.152344 3.875 -1.640625 C 4.1875 -1.902344 3.628906 -2.441406 3.28125 -2.148438 Z M 1.710938 -3.980469 C 1.972656 -4.484375 2.007812 -4.589844 2.007812 -4.589844 C 2.214844 -4.9375 1.359375 -5.671875 1.117188 -5.234375 C 1.117188 -5.234375 1.011719 -5.0625 0.820312 -4.640625 C 0.644531 -4.257812 1.5 -3.558594 1.710938 -3.980469 Z M 1.710938 -3.980469 "/></g></g></g><g fill="#ffffff" fill-opacity="1"><g transform="translate(50.84422, 24.709434)"><g><path d="M 6.910156 -9.964844 C 6.875 -9.984375 6.839844 -9.984375 6.804688 -9.984375 C 6.789062 -9.984375 6.789062 -9.984375 6.789062 -9.984375 C 6.71875 -9.984375 6.648438 -9.949219 6.597656 -9.878906 C 6.578125 -9.878906 6.578125 -9.859375 6.578125 -9.84375 C 5.359375 -7.433594 4.066406 -4.992188 2.375 -2.863281 C 2.320312 -2.773438 2.25 -2.707031 2.199219 -2.617188 C 1.691406 -3.089844 0.925781 -3.140625 0.3125 -2.6875 C -0.558594 -2.042969 -1.132812 -0.960938 -1.359375 0.0703125 C -1.429688 0.417969 -0.941406 0.996094 -0.574219 0.855469 C 0.699219 0.402344 1.710938 -0.402344 2.601562 -1.34375 C 2.304688 -0.59375 2.023438 0.140625 1.761719 0.90625 C 1.625 1.308594 2.511719 2.007812 2.671875 1.570312 C 3.925781 -2.164062 5.707031 -5.6875 7.46875 -9.179688 C 7.488281 -9.214844 7.488281 -9.230469 7.503906 -9.265625 C 7.539062 -9.511719 7.191406 -9.878906 6.910156 -9.964844 Z M 0.0507812 -0.628906 C 0.140625 -0.785156 0.246094 -0.941406 0.347656 -1.082031 C 0.542969 -1.328125 0.75 -1.570312 0.976562 -1.761719 C 1.132812 -1.886719 1.308594 -2.023438 1.5 -2.078125 C 1.570312 -2.078125 1.625 -2.09375 1.691406 -2.113281 C 1.710938 -2.09375 1.726562 -2.09375 1.746094 -2.09375 C 1.238281 -1.535156 0.699219 -1.011719 0.0507812 -0.628906 Z M 0.0507812 -0.628906 "/></g></g></g><g fill="#ffffff" fill-opacity="1"><g transform="translate(56.463419, 24.709434)"><g><path d="M 6.542969 -2.214844 C 5.882812 -1.625 4.03125 -0.246094 2.984375 -0.121094 C 2.96875 -0.121094 2.96875 -0.121094 2.949219 -0.121094 C 3 -0.382812 3.035156 -0.628906 3.140625 -0.90625 C 3.230469 -1.167969 3.332031 -1.429688 3.367188 -1.710938 C 3.386719 -1.746094 3.386719 -1.796875 3.367188 -1.867188 C 3.367188 -2.042969 3.175781 -2.269531 2.96875 -2.410156 C 2.84375 -2.496094 2.707031 -2.546875 2.582031 -2.511719 C 2.476562 -2.496094 2.390625 -2.460938 2.285156 -2.425781 C 1.796875 -3.070312 0.90625 -3.195312 0.210938 -2.6875 C -0.644531 -2.042969 -1.222656 -0.960938 -1.449219 0.0703125 C -1.519531 0.417969 -1.03125 0.996094 -0.664062 0.855469 C 0.382812 0.4375 1.167969 -0.472656 2.09375 -1.082031 C 2.007812 -0.785156 1.953125 -0.488281 2.058594 -0.15625 C 2.199219 0.332031 2.636719 0.75 3.160156 0.820312 C 3.683594 0.871094 4.1875 0.59375 4.605469 0.347656 C 5.53125 -0.210938 6.351562 -0.925781 7.15625 -1.640625 C 7.46875 -1.9375 6.875 -2.53125 6.542969 -2.214844 Z M 0.246094 -1.066406 C 0.246094 -1.066406 0.261719 -1.082031 0.261719 -1.082031 C 0.453125 -1.328125 0.664062 -1.570312 0.890625 -1.761719 C 1.046875 -1.886719 1.203125 -2.023438 1.394531 -2.078125 C 1.464844 -2.078125 1.535156 -2.09375 1.605469 -2.113281 C 1.605469 -2.09375 1.605469 -2.09375 1.625 -2.09375 C 1.132812 -1.816406 0.699219 -1.429688 0.246094 -1.066406 Z M 0.246094 -1.066406 "/></g></g></g><g fill="#ffffff" fill-opacity="1"><g transform="translate(63.112226, 24.709434)"><g><path d="M 7.398438 -2.25 C 6.507812 -1.761719 5.445312 -1.273438 4.605469 -0.574219 C 4.886719 -1.328125 5.148438 -2.078125 5.375 -2.828125 C 5.460938 -3.160156 4.835938 -3.890625 4.519531 -3.558594 C 3.839844 -2.898438 3.140625 -2.269531 2.375 -1.710938 C 1.972656 -1.429688 1.570312 -1.152344 1.152344 -0.90625 C 0.90625 -0.75 0.574219 -0.558594 0.261719 -0.488281 C 0.402344 -1.066406 0.664062 -1.570312 1.03125 -2.042969 C 1.308594 -2.390625 0.488281 -3.175781 0.210938 -2.84375 C -0.367188 -2.128906 -0.699219 -1.292969 -0.769531 -0.367188 C -0.804688 -0.121094 -0.507812 0.175781 -0.296875 0.261719 C 0.769531 0.734375 1.710938 0.0859375 2.582031 -0.488281 C 2.984375 -0.75 3.367188 -1.046875 3.753906 -1.34375 C 3.421875 -0.488281 3.070312 0.367188 2.671875 1.203125 C 2.496094 1.359375 2.339844 1.519531 2.179688 1.691406 C 1.5 2.375 0.855469 3.070312 0.277344 3.820312 C -0.367188 4.695312 -0.941406 5.6875 -0.628906 6.804688 C -0.574219 7.015625 -0.015625 7.644531 0.226562 7.328125 C 1.5 5.65625 2.601562 3.855469 3.507812 1.972656 C 4.851562 0.664062 6.28125 -0.609375 7.886719 -1.554688 C 8.324219 -1.816406 7.765625 -2.441406 7.398438 -2.25 Z M 7.398438 -2.25 "/></g></g></g><g fill="#ffffff" fill-opacity="1"><g transform="translate(70.65104, 24.709434)"><g/></g></g><g fill="#ffffff" fill-opacity="1"><g transform="translate(77.230041, 24.709434)"><g><path d="M 13.296875 -5.898438 C 12.476562 -5.8125 11.65625 -5.722656 10.835938 -5.601562 C 11.394531 -6.980469 12.007812 -8.34375 12.671875 -9.667969 C 12.84375 -10.035156 11.988281 -10.769531 11.761719 -10.332031 C 10.960938 -8.726562 10.246094 -7.101562 9.597656 -5.425781 C 8.34375 -5.253906 7.101562 -5.042969 5.847656 -4.816406 C 6.335938 -5.984375 6.859375 -7.15625 7.398438 -8.308594 C 7.574219 -8.671875 6.71875 -9.40625 6.507812 -8.96875 C 5.8125 -7.523438 5.183594 -6.054688 4.589844 -4.554688 C 3.261719 -4.292969 1.953125 -3.996094 0.644531 -3.683594 C 0.210938 -3.578125 0.890625 -2.671875 1.308594 -2.773438 C 2.25 -3.019531 3.195312 -3.230469 4.152344 -3.4375 C 3.421875 -1.464844 2.757812 0.523438 2.199219 2.53125 C 2.113281 2.863281 2.773438 3.613281 3.054688 3.28125 C 3.296875 2.984375 3.472656 2.6875 3.578125 2.339844 C 3.613281 2.214844 3.558594 2.078125 3.472656 1.9375 C 4.03125 0.0351562 4.675781 -1.851562 5.410156 -3.699219 C 6.667969 -3.945312 7.921875 -4.171875 9.199219 -4.378906 C 8.671875 -2.949219 8.21875 -1.519531 7.800781 -0.0703125 C 7.695312 0.347656 8.585938 1.046875 8.707031 0.59375 C 9.199219 -1.152344 9.753906 -2.863281 10.417969 -4.554688 C 11.535156 -4.710938 12.652344 -4.851562 13.769531 -4.972656 C 14.347656 -5.042969 13.699219 -5.953125 13.296875 -5.898438 Z M 13.296875 -5.898438 "/></g></g></g><g fill="#ffffff" fill-opacity="1"><g transform="translate(88.817466, 24.709434)"><g><path d="M 4.519531 -2.179688 C 3.492188 -1.378906 0.976562 -0.140625 -0.0703125 0 C -0.0351562 -0.140625 0.015625 -0.277344 0.0703125 -0.402344 C 0.699219 -0.699219 3.035156 -1.605469 2.042969 -2.636719 C 1.359375 -3.351562 0.4375 -2.707031 -0.0859375 -2.148438 C -0.664062 -1.519531 -1.464844 -0.277344 -0.835938 0.558594 C -0.4375 1.117188 0.15625 1.066406 0.734375 0.871094 C 2.304688 0.3125 3.753906 -0.734375 5.132812 -1.625 C 5.460938 -1.851562 4.886719 -2.460938 4.519531 -2.179688 Z M 4.519531 -2.179688 "/></g></g></g><g fill="#ffffff" fill-opacity="1"><g transform="translate(93.441966, 24.709434)"><g><path d="M 3.996094 -2.128906 C 3.507812 -1.605469 1.796875 -0.699219 0.523438 -0.523438 C 0.453125 -1.167969 0.925781 -2.128906 1.082031 -2.582031 C 1.394531 -3.507812 1.710938 -4.433594 2.042969 -5.339844 C 2.722656 -7.207031 3.457031 -9.058594 4.222656 -10.890625 C 4.378906 -11.273438 3.507812 -12.007812 3.316406 -11.554688 C 2.617188 -9.878906 1.953125 -8.183594 1.328125 -6.476562 C 1.011719 -5.65625 0.734375 -4.835938 0.4375 -3.996094 C 0.175781 -3.210938 -0.15625 -2.410156 -0.332031 -1.589844 C -0.453125 -0.996094 -0.402344 -0.402344 0.015625 0.0859375 C 0.402344 0.558594 0.925781 0.472656 1.464844 0.296875 C 2.582031 -0.0351562 3.71875 -0.785156 4.519531 -1.640625 C 4.816406 -1.972656 4.292969 -2.460938 3.996094 -2.128906 Z M 3.996094 -2.128906 "/></g></g></g><g fill="#ffffff" fill-opacity="1"><g transform="translate(97.508037, 24.709434)"><g><path d="M 3.980469 -3.351562 C 3.351562 -3.945312 2.722656 -3.578125 2.164062 -3.105469 C 1.691406 -2.6875 1.257812 -2.234375 0.871094 -1.726562 C 0.996094 -2.078125 1.117188 -2.425781 1.238281 -2.792969 C 1.378906 -3.175781 0.488281 -3.890625 0.332031 -3.4375 C -0.574219 -0.75 -1.5 1.953125 -2.410156 4.640625 C -2.546875 5.042969 -1.65625 5.757812 -1.519531 5.304688 C -0.90625 3.558594 -0.121094 1.796875 0.890625 0.226562 C 1.011719 0.453125 1.292969 0.714844 1.5 0.714844 C 2.722656 0.734375 3.855469 -0.644531 4.242188 -1.691406 C 4.46875 -2.25 4.433594 -2.914062 3.980469 -3.351562 Z M 3.296875 -2.234375 C 2.96875 -1.464844 2.113281 -0.3125 1.1875 -0.210938 C 1.394531 -0.523438 1.605469 -0.820312 1.851562 -1.097656 C 2.179688 -1.535156 2.566406 -1.9375 2.984375 -2.285156 C 3.070312 -2.375 3.175781 -2.460938 3.28125 -2.53125 C 3.316406 -2.566406 3.351562 -2.582031 3.386719 -2.617188 C 3.367188 -2.476562 3.351562 -2.355469 3.296875 -2.234375 Z M 3.296875 -2.234375 "/></g></g></g><g fill="#ffffff" fill-opacity="1"><g transform="translate(102.900384, 24.709434)"><g><path d="M 4.519531 -2.179688 C 3.492188 -1.378906 0.976562 -0.140625 -0.0703125 0 C -0.0351562 -0.140625 0.015625 -0.277344 0.0703125 -0.402344 C 0.699219 -0.699219 3.035156 -1.605469 2.042969 -2.636719 C 1.359375 -3.351562 0.4375 -2.707031 -0.0859375 -2.148438 C -0.664062 -1.519531 -1.464844 -0.277344 -0.835938 0.558594 C -0.4375 1.117188 0.15625 1.066406 0.734375 0.871094 C 2.304688 0.3125 3.753906 -0.734375 5.132812 -1.625 C 5.460938 -1.851562 4.886719 -2.460938 4.519531 -2.179688 Z M 4.519531 -2.179688 "/></g></g></g><g fill="#ffffff" fill-opacity="1"><g transform="translate(107.524884, 24.709434)"><g><path d="M 3.230469 -2.285156 C 2.617188 -3.296875 1.78125 -3.125 0.976562 -2.511719 C 0.855469 -2.898438 0.226562 -3.316406 0.0859375 -2.949219 C -0.296875 -1.917969 -0.714844 -0.90625 -1.097656 0.121094 C -1.238281 0.507812 -0.402344 1.238281 -0.191406 0.785156 C 0.105469 0.140625 0.507812 -0.453125 0.996094 -0.960938 C 1.203125 -1.203125 1.449219 -1.429688 1.710938 -1.625 C 1.832031 -1.710938 2.339844 -2.09375 2.566406 -2.09375 C 2.707031 -1.953125 2.878906 -1.816406 3.054688 -1.832031 C 3.316406 -1.851562 3.351562 -2.09375 3.230469 -2.285156 Z M 3.230469 -2.285156 "/></g></g></g><g clip-path="url(#f0f777efb4)"><path fill="#ffffff" d="M 19.753906 34.652344 C 19.492188 34.652344 19.242188 34.601562 19 34.5 C 18.761719 34.402344 18.546875 34.257812 18.363281 34.074219 C 18.179688 33.890625 18.039062 33.679688 17.9375 33.4375 C 17.839844 33.195312 17.789062 32.945312 17.789062 32.683594 L 17.789062 29.050781 C 17.789062 28.65625 17.660156 28.308594 17.40625 28.007812 L 12.929688 22.671875 C 12.605469 22.28125 12.398438 21.835938 12.308594 21.335938 C 12.21875 20.835938 12.257812 20.347656 12.425781 19.871094 L 15.050781 12.542969 C 15.171875 12.203125 15.351562 11.90625 15.597656 11.644531 C 15.839844 11.382812 16.125 11.183594 16.453125 11.039062 C 16.78125 10.898438 17.121094 10.828125 17.480469 10.828125 C 17.835938 10.828125 18.179688 10.898438 18.503906 11.039062 C 19.113281 11.304688 19.601562 11.714844 19.96875 12.269531 L 22.671875 16.296875 C 22.746094 16.40625 22.847656 16.457031 22.980469 16.453125 L 25.238281 16.453125 C 25.425781 16.453125 25.609375 16.488281 25.785156 16.5625 C 25.957031 16.632812 26.109375 16.738281 26.246094 16.871094 C 26.378906 17.003906 26.480469 17.160156 26.554688 17.332031 C 26.625 17.507812 26.660156 17.6875 26.660156 17.878906 C 26.660156 18.066406 26.625 18.25 26.554688 18.421875 C 26.480469 18.597656 26.378906 18.75 26.246094 18.882812 C 26.109375 19.019531 25.957031 19.121094 25.785156 19.191406 C 25.609375 19.265625 25.425781 19.300781 25.238281 19.300781 L 20.964844 19.300781 C 20.3125 19.304688 19.800781 19.03125 19.433594 18.488281 L 18.605469 17.21875 L 17.480469 20.464844 C 17.324219 20.925781 17.410156 21.335938 17.738281 21.691406 L 21.207031 25.46875 C 21.550781 25.839844 21.71875 26.273438 21.71875 26.777344 L 21.71875 32.683594 C 21.71875 32.945312 21.667969 33.195312 21.566406 33.4375 C 21.46875 33.679688 21.324219 33.890625 21.140625 34.074219 C 20.957031 34.257812 20.746094 34.402344 20.503906 34.5 C 20.261719 34.601562 20.011719 34.652344 19.753906 34.652344 Z M 17.480469 11.441406 C 17.207031 11.441406 16.945312 11.496094 16.695312 11.601562 C 16.171875 11.828125 15.816406 12.207031 15.628906 12.746094 L 13.003906 20.074219 C 12.871094 20.449219 12.839844 20.835938 12.90625 21.226562 C 12.976562 21.621094 13.140625 21.96875 13.394531 22.273438 L 17.878906 27.613281 C 18.226562 28.027344 18.398438 28.507812 18.402344 29.050781 L 18.402344 32.683594 C 18.402344 32.863281 18.4375 33.035156 18.503906 33.203125 C 18.574219 33.367188 18.671875 33.515625 18.796875 33.640625 C 18.925781 33.769531 19.070312 33.867188 19.234375 33.933594 C 19.402344 34.003906 19.574219 34.035156 19.753906 34.035156 C 19.933594 34.035156 20.105469 34.003906 20.269531 33.933594 C 20.433594 33.867188 20.582031 33.769531 20.707031 33.640625 C 20.835938 33.515625 20.933594 33.367188 21 33.203125 C 21.070312 33.035156 21.105469 32.863281 21.105469 32.683594 L 21.105469 26.777344 C 21.101562 26.433594 20.984375 26.136719 20.75 25.882812 L 17.289062 22.128906 C 17.058594 21.878906 16.910156 21.589844 16.839844 21.261719 C 16.769531 20.929688 16.789062 20.605469 16.898438 20.285156 L 18.160156 16.605469 L 17.242188 15.25 C 17.195312 15.179688 17.179688 15.101562 17.195312 15.019531 C 17.214844 14.9375 17.257812 14.871094 17.328125 14.824219 C 17.398438 14.777344 17.472656 14.761719 17.558594 14.777344 C 17.640625 14.796875 17.703125 14.835938 17.75 14.90625 L 18.707031 16.296875 C 18.746094 16.335938 18.777344 16.378906 18.796875 16.429688 L 19.949219 18.136719 C 20.191406 18.503906 20.527344 18.6875 20.964844 18.691406 L 25.230469 18.691406 C 25.453125 18.691406 25.644531 18.613281 25.800781 18.453125 C 25.960938 18.296875 26.039062 18.105469 26.039062 17.882812 C 26.039062 17.65625 25.960938 17.464844 25.800781 17.308594 C 25.644531 17.148438 25.453125 17.070312 25.230469 17.070312 L 22.972656 17.070312 C 22.625 17.070312 22.355469 16.929688 22.164062 16.640625 L 19.457031 12.613281 C 19.15625 12.167969 18.757812 11.832031 18.261719 11.617188 C 18.015625 11.503906 17.753906 11.445312 17.480469 11.441406 Z M 17.480469 11.441406 " fill-opacity="1" fill-rule="nonzero"/></g><g clip-path="url(#bd2843f159)"><path fill="#ffffff" d="M 11.433594 21.746094 C 11.289062 21.746094 11.152344 21.722656 11.015625 21.675781 L 7.605469 20.519531 C 7.472656 20.476562 7.355469 20.40625 7.246094 20.3125 C 7.140625 20.222656 7.058594 20.113281 6.996094 19.984375 C 6.933594 19.859375 6.898438 19.726562 6.886719 19.585938 C 6.875 19.445312 6.894531 19.308594 6.9375 19.175781 L 10.195312 9.492188 C 10.242188 9.359375 10.308594 9.242188 10.398438 9.136719 C 10.492188 9.03125 10.597656 8.949219 10.722656 8.882812 C 10.84375 8.820312 10.976562 8.785156 11.113281 8.773438 C 11.253906 8.761719 11.386719 8.773438 11.519531 8.816406 L 14.988281 9.894531 C 15.1875 9.957031 15.363281 10.054688 15.519531 10.1875 C 15.675781 10.320312 15.800781 10.480469 15.890625 10.664062 C 15.980469 10.847656 16.03125 11.042969 16.042969 11.25 C 16.054688 11.453125 16.027344 11.65625 15.957031 11.847656 L 12.644531 20.902344 C 12.550781 21.15625 12.394531 21.359375 12.171875 21.515625 C 11.953125 21.671875 11.703125 21.746094 11.433594 21.746094 Z M 11.203125 9.378906 C 10.988281 9.378906 10.847656 9.484375 10.777344 9.6875 L 7.519531 19.367188 C 7.480469 19.484375 7.488281 19.597656 7.542969 19.707031 C 7.597656 19.820312 7.683594 19.894531 7.800781 19.933594 L 11.210938 21.085938 C 11.386719 21.148438 11.558594 21.140625 11.722656 21.058594 C 11.890625 20.980469 12.007812 20.851562 12.070312 20.675781 L 15.378906 11.628906 C 15.421875 11.515625 15.4375 11.398438 15.429688 11.277344 C 15.421875 11.15625 15.394531 11.039062 15.339844 10.929688 C 15.285156 10.824219 15.210938 10.726562 15.121094 10.648438 C 15.027344 10.570312 14.925781 10.511719 14.808594 10.476562 L 11.335938 9.402344 C 11.292969 9.386719 11.25 9.378906 11.203125 9.378906 Z M 15.667969 11.742188 Z M 15.667969 11.742188 " fill-opacity="1" fill-rule="nonzero"/></g><path fill="#ffffff" d="M 14.984375 13.917969 C 14.949219 13.917969 14.914062 13.914062 14.882812 13.902344 L 9.644531 12.09375 C 9.5625 12.066406 9.5 12.015625 9.460938 11.9375 C 9.421875 11.863281 9.414062 11.78125 9.445312 11.699219 C 9.472656 11.617188 9.523438 11.558594 9.605469 11.519531 C 9.683594 11.484375 9.761719 11.480469 9.84375 11.511719 L 15.082031 13.320312 C 15.164062 13.347656 15.222656 13.402344 15.257812 13.476562 C 15.296875 13.554688 15.300781 13.632812 15.273438 13.714844 C 15.222656 13.851562 15.128906 13.917969 14.984375 13.917969 Z M 14.984375 13.917969 " fill-opacity="1" fill-rule="nonzero"/><path fill="#ffffff" d="M 13.796875 17.15625 C 13.757812 17.15625 13.71875 17.148438 13.683594 17.136719 L 8.613281 15.109375 C 8.53125 15.078125 8.476562 15.023438 8.445312 14.945312 C 8.410156 14.867188 8.410156 14.789062 8.441406 14.710938 C 8.472656 14.632812 8.527344 14.574219 8.605469 14.542969 C 8.679688 14.507812 8.757812 14.507812 8.839844 14.539062 L 13.910156 16.5625 C 14.070312 16.625 14.132812 16.742188 14.097656 16.90625 C 14.066406 17.074219 13.96875 17.15625 13.796875 17.15625 Z M 13.796875 17.15625 " fill-opacity="1" fill-rule="nonzero"/><path fill="#ffffff" d="M 12.714844 20.285156 C 12.675781 20.285156 12.640625 20.277344 12.601562 20.265625 L 7.554688 18.253906 C 7.476562 18.222656 7.417969 18.167969 7.386719 18.089844 C 7.351562 18.011719 7.351562 17.933594 7.382812 17.855469 C 7.414062 17.777344 7.46875 17.722656 7.546875 17.6875 C 7.625 17.65625 7.703125 17.652344 7.78125 17.683594 L 12.828125 19.6875 C 13 19.742188 13.070312 19.859375 13.035156 20.039062 C 13.003906 20.214844 12.894531 20.296875 12.714844 20.285156 Z M 12.714844 20.285156 " fill-opacity="1" fill-rule="nonzero"/><g clip-path="url(#142b5487b3)"><path fill="#ffffff" d="M 8.984375 34.710938 C 8.75 34.710938 8.523438 34.671875 8.304688 34.59375 C 8.085938 34.515625 7.886719 34.402344 7.707031 34.253906 C 7.523438 34.105469 7.375 33.933594 7.253906 33.730469 C 7.132812 33.53125 7.050781 33.320312 7.003906 33.089844 C 6.886719 32.5 7.007812 31.960938 7.367188 31.480469 L 11.515625 25.910156 L 12.054688 20.757812 C 12.0625 20.671875 12.101562 20.601562 12.164062 20.546875 C 12.230469 20.496094 12.308594 20.472656 12.390625 20.480469 C 12.476562 20.488281 12.546875 20.527344 12.601562 20.59375 C 12.652344 20.660156 12.675781 20.734375 12.667969 20.820312 L 12.113281 26.054688 C 12.109375 26.113281 12.085938 26.160156 12.054688 26.207031 L 7.859375 31.847656 C 7.746094 31.996094 7.664062 32.160156 7.617188 32.339844 C 7.570312 32.519531 7.558594 32.703125 7.582031 32.890625 C 7.605469 33.074219 7.667969 33.246094 7.761719 33.410156 C 7.855469 33.570312 7.976562 33.707031 8.121094 33.820312 C 8.269531 33.933594 8.4375 34.015625 8.617188 34.0625 C 8.796875 34.109375 8.980469 34.121094 9.164062 34.097656 C 9.347656 34.074219 9.523438 34.011719 9.683594 33.917969 C 9.84375 33.824219 9.980469 33.703125 10.09375 33.554688 L 14.792969 27.535156 L 15.304688 25.3125 C 15.324219 25.230469 15.371094 25.164062 15.445312 25.117188 C 15.515625 25.070312 15.597656 25.054688 15.679688 25.074219 C 15.765625 25.09375 15.832031 25.140625 15.878906 25.214844 C 15.925781 25.289062 15.9375 25.367188 15.917969 25.453125 L 15.390625 27.738281 C 15.382812 27.78125 15.363281 27.820312 15.335938 27.859375 L 10.578125 33.933594 C 10.171875 34.453125 9.640625 34.710938 8.984375 34.710938 Z M 8.984375 34.710938 " fill-opacity="1" fill-rule="nonzero"/></g><g clip-path="url(#be9575cbfe)"><path fill="#ffffff" d="M 25.140625 34.652344 C 25.054688 34.652344 24.984375 34.621094 24.925781 34.5625 C 24.863281 34.503906 24.835938 34.429688 24.835938 34.34375 L 24.835938 19 C 24.835938 18.917969 24.863281 18.84375 24.925781 18.785156 C 24.984375 18.722656 25.054688 18.695312 25.140625 18.695312 C 25.226562 18.695312 25.296875 18.722656 25.359375 18.785156 C 25.417969 18.84375 25.449219 18.917969 25.449219 19 L 25.449219 34.34375 C 25.449219 34.429688 25.417969 34.503906 25.359375 34.5625 C 25.296875 34.621094 25.226562 34.652344 25.140625 34.652344 Z M 25.140625 34.652344 " fill-opacity="1" fill-rule="nonzero"/></g><path fill="#ffffff" d="M 25.140625 17.074219 C 25.054688 17.074219 24.984375 17.042969 24.925781 16.984375 C 24.863281 16.925781 24.835938 16.851562 24.835938 16.765625 L 24.835938 13.609375 C 24.835938 13.523438 24.863281 13.453125 24.925781 13.390625 C 24.984375 13.332031 25.054688 13.300781 25.140625 13.300781 C 25.226562 13.300781 25.296875 13.332031 25.359375 13.390625 C 25.417969 13.453125 25.449219 13.523438 25.449219 13.609375 L 25.449219 16.765625 C 25.449219 16.851562 25.417969 16.925781 25.359375 16.984375 C 25.296875 17.042969 25.226562 17.074219 25.140625 17.074219 Z M 25.140625 17.074219 " fill-opacity="1" fill-rule="nonzero"/><path fill="#ffffff" d="M 20.285156 10.515625 C 19.855469 10.515625 19.441406 10.433594 19.046875 10.269531 C 18.648438 10.105469 18.296875 9.871094 17.992188 9.566406 C 17.6875 9.261719 17.453125 8.910156 17.289062 8.511719 C 17.125 8.113281 17.042969 7.699219 17.042969 7.269531 C 17.042969 6.839844 17.125 6.425781 17.289062 6.027344 C 17.453125 5.628906 17.6875 5.277344 17.992188 4.972656 C 18.296875 4.667969 18.648438 4.433594 19.046875 4.269531 C 19.441406 4.105469 19.855469 4.023438 20.285156 4.023438 C 20.714844 4.023438 21.128906 4.105469 21.527344 4.269531 C 21.925781 4.433594 22.273438 4.667969 22.578125 4.972656 C 22.882812 5.277344 23.117188 5.628906 23.28125 6.027344 C 23.445312 6.425781 23.527344 6.839844 23.527344 7.269531 C 23.527344 7.699219 23.445312 8.113281 23.28125 8.511719 C 23.117188 8.910156 22.882812 9.257812 22.578125 9.5625 C 22.273438 9.867188 21.921875 10.101562 21.527344 10.269531 C 21.128906 10.433594 20.714844 10.515625 20.285156 10.515625 Z M 20.285156 4.636719 C 19.9375 4.636719 19.601562 4.703125 19.28125 4.835938 C 18.957031 4.96875 18.671875 5.160156 18.425781 5.40625 C 18.179688 5.652344 17.988281 5.9375 17.855469 6.261719 C 17.722656 6.582031 17.65625 6.917969 17.65625 7.269531 C 17.65625 7.617188 17.722656 7.953125 17.855469 8.277344 C 17.988281 8.597656 18.179688 8.882812 18.425781 9.128906 C 18.671875 9.378906 18.957031 9.566406 19.28125 9.703125 C 19.601562 9.835938 19.9375 9.902344 20.285156 9.902344 C 20.636719 9.902344 20.96875 9.835938 21.292969 9.703125 C 21.613281 9.566406 21.898438 9.378906 22.144531 9.128906 C 22.390625 8.882812 22.582031 8.597656 22.714844 8.277344 C 22.847656 7.953125 22.914062 7.617188 22.914062 7.269531 C 22.914062 6.921875 22.847656 6.585938 22.714844 6.261719 C 22.582031 5.941406 22.390625 5.65625 22.144531 5.40625 C 21.898438 5.160156 21.613281 4.972656 21.292969 4.835938 C 20.96875 4.703125 20.632812 4.636719 20.285156 4.636719 Z M 20.285156 4.636719 " fill-opacity="1" fill-rule="nonzero"/></svg>